wght100.ufo
<glyph name="zero" format="2">
	<unicode hex="0030"/>
	<advance width="1176"/>
	<outline>
		<contour>
			<point x="74.0009765625" y="746.0256347656" type="qcurve" smooth="yes"/>
			<point x="74.0009765625" y="1094.7063598633"/>
			<point x="351.8876342773" y="1514.0032958984"/>
			<point x="588.9025878906" y="1514.0032958984" type="qcurve" smooth="yes"/>
			<point x="829.1357421875" y="1514.0032958984"/>
			<point x="1101.8672485352" y="1095.6823730469"/>
			<point x="1101.8672485352" y="749.0016479492" type="qcurve" smooth="yes"/>
			<point x="1101.8672485352" y="412.2249755859"/>
			<point x="832.7309570312" y="-29"/>
			<point x="590.9025878906" y="-29" type="qcurve" smooth="yes"/>
			<point x="348.8220214844" y="-29"/>
			<point x="74.0009765625" y="393.3688964844"/>
		</contour>
		<contour>
			<point x="258.94921875" y="762.9536743164" type="qcurve" smooth="yes"/>
			<point x="259" y="481"/>
			<point x="432.8967285156" y="84.0759277344"/>
			<point x="587.9025878906" y="84.0759277344" type="qcurve" smooth="yes"/>
			<point x="745.9084472656" y="84.0759277344"/>
			<point x="917" y="447"/>
			<point x="916.9190063477" y="752.0256347656" type="qcurve" smooth="yes"/>
			<point x="917" y="1027"/>
			<point x="744.9084472656" y="1383.7736816406"/>
			<point x="588.9025878906" y="1383.7736816406" type="qcurve" smooth="yes"/>
			<point x="428.8967285156" y="1383.7736816406"/>
			<point x="259" y="1060"/>
		</contour>
	</outline>
</glyph>
<glyph name="one" format="2">
	<unicode hex="0031"/>
	<advance width="781"/>
	<outline>
		<contour>
			<point x="46.2305908203" y="0" type="line"/>
			<point x="46.2305908203" y="94.0017089844" type="line"/>
			<point x="303.23046875" y="122.0017089844" type="line"/>
			<point x="303.23046875" y="751.8411865234" type="line"/>
			<point x="302.23046875" y="1368.3779296875" type="line"/>
			<point x="67.6672363281" y="1396.5419921875" type="line"/>
			<point x="67.6672363281" y="1496.6949462891" type="line"/>
			<point x="462.4372558594" y="1503.0032958984" type="line"/>
			<point x="481.4169921875" y="1472.6188964844" type="line"/>
			<point x="478.8217773438" y="751.8411865234" type="line"/>
			<point x="478.8217773438" y="122.0017089844" type="line"/>
			<point x="744.8216552734" y="94.0017089844" type="line"/>
			<point x="744.8216552734" y="0" type="line"/>
		</contour>
	</outline>
</glyph>
<glyph name="two" format="2">
	<unicode hex="0032"/>
	<advance width="998"/>
	<outline>
		<contour>
			<point x="38.0009765625" y="-0.5384521484" type="line"/>
			<point x="38.0009765625" y="91" type="line"/>
			<point x="50.5899047852" y="231.4003295898"/>
			<point x="205.5665893555" y="497.9135742188"/>
			<point x="354.2665405273" y="621.4284667969" type="qcurve" smooth="yes"/>
			<point x="480.6063842773" y="725.8883666992"/>
			<point x="720.6215209961" y="964.7965087891"/>
			<point x="720.6215209961" y="1113.8267822266" type="qcurve" smooth="yes"/>
			<point x="720.6215209961" y="1241.2383422852"/>
			<point x="538.3135375977" y="1375.6967773438"/>
			<point x="416.0059204102" y="1375.6967773438" type="qcurve" smooth="yes"/>
			<point x="313.1415405273" y="1375.6967773438"/>
			<point x="178.124206543" y="1300.7520751953"/>
			<point x="130.6926269531" y="1237.5009155273" type="qcurve"/>
			<point x="65.0009765625" y="1327.2554931641" type="line"/>
			<point x="112.8485107422" y="1400.7661743164"/>
			<point x="312.8365478516" y="1514.0032958984"/>
			<point x="487.9142456055" y="1514.0032958984" type="qcurve" smooth="yes"/>
			<point x="668.084777832" y="1514.0032958984"/>
			<point x="909.7362670898" y="1311.8188476562"/>
			<point x="909.7362670898" y="1140.6015014648" type="qcurve" smooth="yes"/>
			<point x="909.7362670898" y="935.806640625"/>
			<point x="615.3751220703" y="642.0361938477"/>
			<point x="465.4224243164" y="531.6979980469" type="qcurve" smooth="yes"/>
			<point x="323.9440307617" y="429.8409423828"/>
			<point x="218.3209228516" y="264.5520019531"/>
			<point x="199.8665771484" y="173.5911865234" type="qcurve"/>
			<point x="205.8665771484" y="166.6391601562" type="line"/>
			<point x="965.7969360352" y="166.6391601562" type="line"/>
			<point x="965.7969360352" y="-0.5384521484" type="line"/>
		</contour>
	</outline>
</glyph>
<glyph name="three" format="2">
	<unicode hex="0033"/>
	<advance width="992"/>
	<outline>
		<contour>
			<point x="-1.9990234375" y="166" type="qcurve"/>
			<point x="69.5388183594" y="267.8452148438" type="line"/>
			<point x="144.2210693359" y="174.2311401367"/>
			<point x="273.674987793" y="101.5373535156"/>
			<point x="393.6879272461" y="101.5373535156" type="qcurve" smooth="yes"/>
			<point x="535.7476196289" y="101.5373535156"/>
			<point x="722.4530029297" y="270.1787719727"/>
			<point x="722.4530029297" y="411.3057250977" type="qcurve" smooth="yes"/>
			<point x="722.4530029297" y="550.5435791016"/>
			<point x="459.4851074219" y="715.6754760742"/>
			<point x="259.4820556641" y="714.0601196289" type="qcurve" smooth="yes"/>
			<point x="244.7300415039" y="714.0601196289" type="line"/>
			<point x="206.471862793" y="816.6506347656" type="line"/>
			<point x="283.2272949219" y="818.6506347656" type="line" smooth="yes"/>
			<point x="461.7839355469" y="821.9873046875"/>
			<point x="694.9119262695" y="983.1194458008"/>
			<point x="694.9119262695" y="1132.2752075195" type="qcurve" smooth="yes"/>
			<point x="694.9119262695" y="1264.2720947266"/>
			<point x="527.3693237305" y="1387.2880249023"/>
			<point x="404.3753051758" y="1387.2880249023" type="qcurve" smooth="yes"/>
			<point x="315.7947998047" y="1387.2880249023"/>
			<point x="191.9225463867" y="1321.7934570312"/>
			<point x="115.4266967773" y="1241.5661621094" type="qcurve"/>
			<point x="61.9379272461" y="1341.1835327148" type="line"/>
			<point x="135.0126342773" y="1420.8682861328"/>
			<point x="340.7095336914" y="1513.9553222656"/>
			<point x="474.4149169922" y="1513.9553222656" type="qcurve" smooth="yes"/>
			<point x="644.0725708008" y="1513.9553222656"/>
			<point x="877.4553833008" y="1337.6749267578"/>
			<point x="877.4553833008" y="1179.5267944336" type="qcurve" smooth="yes"/>
			<point x="877.4553833008" y="1021.8742675781"/>
			<point x="673.6364746094" y="830.7287597656"/>
			<point x="496.7745361328" y="786.7617797852" type="qcurve"/>
			<point x="498.5601806641" y="781.809753418" type="line"/>
			<point x="675.0968017578" y="757.4013061523"/>
			<point x="910.4403686523" y="547.0341186523"/>
			<point x="910.4403686523" y="383.0209960938" type="qcurve" smooth="yes"/>
			<point x="910.4403686523" y="199.1604614258"/>
			<point x="641.4671630859" y="-30"/>
			<point x="447.0414428711" y="-30" type="qcurve" smooth="yes"/>
			<point x="293.2225952148" y="-30"/>
			<point x="69.9028320312" y="78.9369506836"/>
		</contour>
	</outline>
</glyph>
<glyph name="four" format="2">
	<unicode hex="0034"/>
	<advance width="1074"/>
	<outline>
		<contour>
			<point x="31.0009765625" y="511.1770019531" type="line"/>
			<point x="674.5912475586" y="1512.4830322266" type="line"/>
			<point x="781.1605834961" y="1504.4830322266" type="line"/>
			<point x="827.0170288086" y="1476.4830322266" type="line"/>
			<point x="825.0170288086" y="471.0235595703" type="line"/>
			<point x="825.0170288086" y="122.0017089844" type="line"/>
			<point x="1061.784362793" y="94.0017089844" type="line"/>
			<point x="1061.784362793" y="0" type="line"/>
			<point x="378.9378051758" y="0" type="line"/>
			<point x="378.9378051758" y="94.0017089844" type="line"/>
			<point x="654.7826538086" y="122.0017089844" type="line"/>
			<point x="654.7826538086" y="468.0235595703" type="line"/>
			<point x="654.7826538086" y="1289.0084228516" type="line"/>
			<point x="184.7613525391" y="522.1770019531" type="line"/>
			<point x="188.7613525391" y="516.1770019531" type="line"/>
			<point x="1017.2531738281" y="516.1770019531" type="line"/>
			<point x="1017.2531738281" y="416.7163085938" type="line"/>
			<point x="37.0009765625" y="413.7163085938" type="line"/>
		</contour>
	</outline>
</glyph>
<glyph name="five" format="2">
	<unicode hex="0035"/>
	<advance width="1005"/>
	<outline>
		<contour>
			<point x="-9.9990234375" y="130" type="qcurve"/>
			<point x="52.6675415039" y="232.946105957" type="line"/>
			<point x="120.5151977539" y="164.0391845703"/>
			<point x="251.5121459961" y="105.3065185547"/>
			<point x="387.5234985352" y="105.3065185547" type="qcurve" smooth="yes"/>
			<point x="533.3170776367" y="105.3065185547"/>
			<point x="734.728515625" y="305.0726928711"/>
			<point x="734.728515625" y="488.0986328125" type="qcurve" smooth="yes"/>
			<point x="734.728515625" y="668.1485595703"/>
			<point x="467.7533569336" y="809.5115356445"/>
			<point x="288.5596313477" y="807.5115356445" type="qcurve" smooth="yes"/>
			<point x="135.2593994141" y="806.5115356445" type="line"/>
			<point x="109.1058349609" y="840.8337402344" type="line"/>
			<point x="171.1058349609" y="1469.3870849609" type="line"/>
			<point x="193.1058349609" y="1494.3870849609" type="line"/>
			<point x="836.7913208008" y="1494.3870849609" type="line"/>
			<point x="826.8391723633" y="1318.7957763672" type="line"/>
			<point x="275.8450927734" y="1318.7957763672" type="line"/>
			<point x="265.8450927734" y="1307.7957763672" type="line"/>
			<point x="220.4895019531" y="907.2269287109" type="line"/>
			<point x="337.4252929688" y="924.2368164062" type="line"/>
			<point x="594.7577514648" y="924.1737670898"/>
			<point x="918.3602294922" y="696.7398071289"/>
			<point x="918.3602294922" y="476.729309082" type="qcurve" smooth="yes"/>
			<point x="918.3602294922" y="234.112487793"/>
			<point x="641.4956665039" y="-31"/>
			<point x="430.3450927734" y="-31" type="qcurve" smooth="yes"/>
			<point x="274.4165649414" y="-31"/>
			<point x="58.8385009766" y="58.7565917969"/>
		</contour>
	</outline>
</glyph>
<glyph name="six" format="2">
	<unicode hex="0036"/>
	<advance width="1183"/>
	<outline>
		<contour>
			<point x="74.0009765625" y="624.577331543" type="qcurve" smooth="yes"/>
			<point x="80.0009765625" y="969.2669677734"/>
			<point x="473.7755126953" y="1459.5763549805"/>
			<point x="803.4351196289" y="1546.0032958984" type="qcurve"/>
			<point x="842.3301391602" y="1442.9208984375" type="line"/>
			<point x="591.3307495117" y="1362.8596191406"/>
			<point x="262.7587890625" y="944.311340332"/>
			<point x="257.7587890625" y="617.577331543" type="qcurve" smooth="yes"/>
			<point x="253.7587890625" y="389.2161865234"/>
			<point x="450.2112426758" y="80.9990234375"/>
			<point x="610.2326049805" y="80.9990234375" type="qcurve" smooth="yes"/>
			<point x="755.2539672852" y="80.9990234375"/>
			<point x="926.678527832" y="312.3489379883"/>
			<point x="930.678527832" y="452.1770019531" type="qcurve" smooth="yes"/>
			<point x="934.678527832" y="608.7562255859"/>
			<point x="765.8680419922" y="799.6856079102"/>
			<point x="643.2310791016" y="799.6856079102" type="qcurve" smooth="yes"/>
			<point x="567.542175293" y="799.6856079102"/>
			<point x="461.4235229492" y="761.2996826172"/>
			<point x="446.5695800781" y="750.2554931641" type="qcurve"/>
			<point x="417.8524169922" y="823.7338867188" type="line"/>
			<point x="450.5147094727" y="853.8220825195"/>
			<point x="595.4107055664" y="907.4019775391"/>
			<point x="680.845703125" y="907.4019775391" type="qcurve" smooth="yes"/>
			<point x="874.1076049805" y="907.4019775391"/>
			<point x="1123.1741333008" y="674.3134765625"/>
			<point x="1122.1741333008" y="463.0611572266" type="qcurve" smooth="yes"/>
			<point x="1121.1741333008" y="242.8903198242"/>
			<point x="839.0507202148" y="-30"/>
			<point x="616.2633666992" y="-30" type="qcurve" smooth="yes"/>
			<point x="368.5631713867" y="-30"/>
			<point x="69.0009765625" y="310.3805541992"/>
		</contour>
	</outline>
</glyph>
<glyph name="seven" format="2">
	<unicode hex="0037"/>
	<advance width="893"/>
	<outline>
		<contour>
			<point x="18.1205444336" y="1091.5600585938" type="line"/>
			<point x="22.6726074219" y="1494.3870849609" type="line"/>
			<point x="866.8826293945" y="1494.3870849609" type="line"/>
			<point x="866.8826293945" y="1377.7220458984" type="line"/>
			<point x="572.6577758789" y="635.7451171875" type="line"/>
			<point x="344.4282836914" y="-42" type="line"/>
			<point x="176.7422485352" y="-42" type="line"/>
			<point x="176.7422485352" y="29.7607421875" type="line"/>
			<point x="431.8125610352" y="686.2506713867" type="line"/>
			<point x="645.2018432617" y="1311.5574951172" type="line"/>
			<point x="631.2018432617" y="1326.5574951172" type="line"/>
			<point x="169.7216796875" y="1326.5574951172" type="line"/>
			<point x="141.1217651367" y="1091.5600585938" type="line"/>
		</contour>
	</outline>
</glyph>
<glyph name="eight" format="2">
	<unicode hex="0038"/>
	<advance width="991"/>
	<outline>
		<contour>
			<point x="31.3859863281" y="361.0842895508" type="qcurve" smooth="yes"/>
			<point x="33.3859863281" y="533.4149780273"/>
			<point x="259.4567260742" y="772.2359008789"/>
			<point x="365.0988769531" y="837.6885375977" type="qcurve"/>
			<point x="436.8008422852" y="779.0953979492" type="line"/>
			<point x="324.8535766602" y="696.6743774414"/>
			<point x="179.9232177734" y="501.3901367188"/>
			<point x="177.9232177734" y="376.8154296875" type="qcurve" smooth="yes"/>
			<point x="173.9232177734" y="237.1791381836"/>
			<point x="344.0563354492" y="81.9221191406"/>
			<point x="492.2624511719" y="81.9221191406" type="qcurve" smooth="yes"/>
			<point x="613.8281860352" y="81.9221191406"/>
			<point x="769.9779663086" y="235.2750854492"/>
			<point x="773.9779663086" y="381.5053100586" type="qcurve" smooth="yes"/>
			<point x="775.9779663086" y="522.696472168"/>
			<point x="589.0069580078" y="649.8604736328"/>
			<point x="449.8185424805" y="728.6306152344" type="qcurve" smooth="yes"/>
			<point x="267.59765625" y="824.8369750977"/>
			<point x="85.4005737305" y="1002.7153320312"/>
			<point x="87.4005737305" y="1171.3014526367" type="qcurve" smooth="yes"/>
			<point x="89.4005737305" y="1329.6538085938"/>
			<point x="339.8061523438" y="1514.1951904297"/>
			<point x="478.0422973633" y="1514.1951904297" type="qcurve" smooth="yes"/>
			<point x="635.9151611328" y="1514.1951904297"/>
			<point x="845.7586669922" y="1339.9147949219"/>
			<point x="845.7586669922" y="1202.2357788086" type="qcurve" smooth="yes"/>
			<point x="845.7586669922" y="1067.8278198242"/>
			<point x="677.4294433594" y="864.938659668"/>
			<point x="574.3218994141" y="781.3186645508" type="qcurve"/>
			<point x="488.4838867188" y="839.5234375" type="line"/>
			<point x="577.4201660156" y="916.5849609375"/>
			<point x="699.14453125" y="1075.3677978516"/>
			<point x="699.6829833984" y="1175.3899536133" type="qcurve" smooth="yes"/>
			<point x="700.2214355469" y="1289.3528442383"/>
			<point x="565.5360107422" y="1399.758605957"/>
			<point x="479.8281860352" y="1399.758605957" type="qcurve" smooth="yes"/>
			<point x="385.0626831055" y="1399.758605957"/>
			<point x="237.9450073242" y="1284.5587158203"/>
			<point x="235.9450073242" y="1188.5689697266" type="qcurve" smooth="yes"/>
			<point x="233.9450073242" y="1079.5175170898"/>
			<point x="364.7042236328" y="971.5175170898"/>
			<point x="540.7056274414" y="878.7816772461" type="qcurve" smooth="yes"/>
			<point x="697.2674560547" y="791.9045410156"/>
			<point x="941.0458374023" y="576.3966674805"/>
			<point x="941.0458374023" y="388.6166381836" type="qcurve" smooth="yes"/>
			<point x="941.0458374023" y="202.4243164062"/>
			<point x="667.8267822266" y="-30"/>
			<point x="507.9069824219" y="-30" type="qcurve" smooth="yes"/>
			<point x="271.8286743164" y="-30"/>
			<point x="27.3859863281" y="197.9627685547"/>
		</contour>
	</outline>
</glyph>
<glyph name="nine" format="2">
	<unicode hex="0039"/>
	<advance width="1180"/>
	<outline>
		<contour>
			<point x="61.0009765625" y="1026.9462280273" type="qcurve" smooth="yes"/>
			<point x="65.0009765625" y="1252.0587158203"/>
			<point x="337.7434692383" y="1513.979309082"/>
			<point x="557.8453369141" y="1513.979309082" type="qcurve" smooth="yes"/>
			<point x="810.207824707" y="1513.979309082"/>
			<point x="1111.1741333008" y="1153.4096069336"/>
			<point x="1106.1741333008" y="839.4259643555" type="qcurve" smooth="yes"/>
			<point x="1100.1741333008" y="494.5053710938"/>
			<point x="701.6666870117" y="24.5084838867"/>
			<point x="369.3729858398" y="-62.3837890625" type="qcurve"/>
			<point x="330.4149169922" y="40.8486938477" type="line"/>
			<point x="579.8960571289" y="117.9125976562"/>
			<point x="910.8689575195" y="519.66796875"/>
			<point x="915.8689575195" y="846.4019775391" type="qcurve" smooth="yes"/>
			<point x="919.8689575195" y="1082.1707763672"/>
			<point x="726.6031494141" y="1402.9802856445"/>
			<point x="566.8216552734" y="1402.9802856445" type="qcurve" smooth="yes"/>
			<point x="425.4884643555" y="1402.9802856445"/>
			<point x="248.94921875" y="1188.9624633789"/>
			<point x="245.94921875" y="1031.5740966797" type="qcurve" smooth="yes"/>
			<point x="242.94921875" y="877.8203735352"/>
			<point x="412.7420043945" y="684.2937011719"/>
			<point x="550.4556274414" y="684.2937011719" type="qcurve" smooth="yes"/>
			<point x="600.6060180664" y="684.2937011719"/>
			<point x="708.8888549805" y="723.7603759766"/>
			<point x="724.1489868164" y="733.2221069336" type="qcurve"/>
			<point x="755.4803466797" y="663.3348388672" type="line"/>
			<point x="722.1282958984" y="631.0371704102"/>
			<point x="587.1796264648" y="576.2175292969"/>
			<point x="493.5952758789" y="576.2175292969" type="qcurve" smooth="yes"/>
			<point x="306.075012207" y="576.2175292969"/>
			<point x="57.0009765625" y="819.5219116211"/>
		</contour>
	</outline>
</glyph>
<glyph name="B" format="2">
	<unicode hex="0042"/>
	<advance width="1199"/>
	<outline>
		<contour>
			<point x="82.0002441406" y="0" type="line"/>
			<point x="82.0002441406" y="100.001953125" type="line"/>
			<point x="289.9990234375" y="135.001953125" type="line"/>
			<point x="291.9990234375" y="790" type="line"/>
			<point x="290.9990234375" y="1359.7177734375" type="line"/>
			<point x="82.0002441406" y="1393.7177734375" type="line"/>
			<point x="82.0002441406" y="1500" type="line"/>
			<point x="611.3248901367" y="1500" type="line" smooth="yes"/>
			<point x="818.044128418" y="1500"/>
			<point x="1023.2003173828" y="1321"/>
			<point x="1023.2003173828" y="1171" type="qcurve" smooth="yes"/>
			<point x="1023.2003173828" y="1027"/>
			<point x="881.7319335938" y="849"/>
			<point x="760.8729248047" y="831" type="qcurve"/>
			<point x="760.8729248047" y="826" type="line"/>
			<point x="911.9739990234" y="813"/>
			<point x="1127.7512207031" y="619"/>
			<point x="1127.7512207031" y="442" type="qcurve" smooth="yes"/>
			<point x="1127.7512207031" y="236"/>
			<point x="840.3748168945" y="0"/>
			<point x="621.8923950195" y="0" type="qcurve" smooth="yes"/>
		</contour>
		<contour>
			<point x="469.5848388672" y="134.5804443359" type="line"/>
			<point x="499.5848388672" y="120.9675292969" type="line"/>
			<point x="602.7356567383" y="119.9675292969" type="line" smooth="yes"/>
			<point x="746.7837524414" y="118.9675292969"/>
			<point x="936.6768798828" y="251.7552490234"/>
			<point x="936.6768798828" y="440" type="qcurve" smooth="yes"/>
			<point x="936.6768798828" y="594.5098876953"/>
			<point x="769.7064208984" y="737.7098388672"/>
			<point x="634.5632324219" y="737.7098388672" type="qcurve" smooth="yes"/>
			<point x="470.8405761719" y="737.7098388672" type="line"/>
			<point x="465.8405761719" y="728.9678955078" type="line"/>
		</contour>
		<contour>
			<point x="465.2591552734" y="863.4193115234" type="line"/>
			<point x="473.2591552734" y="854.1128540039" type="line"/>
			<point x="618.5006103516" y="854.1128540039" type="line" smooth="yes"/>
			<point x="709.9057006836" y="854.1128540039"/>
			<point x="838.1959228516" y="1018.8272705078"/>
			<point x="838.1959228516" y="1161" type="qcurve" smooth="yes"/>
			<point x="838.1959228516" y="1294.1612548828"/>
			<point x="707.0718994141" y="1371.5647583008"/>
			<point x="587.119140625" y="1371.5647583008" type="qcurve" smooth="yes"/>
			<point x="504.1662597656" y="1371.5647583008" type="line"/>
			<point x="470.1662597656" y="1354.9518432617" type="line"/>
		</contour>
	</outline>
	<anchor name="bottom" x="614" y="0"/>
	<anchor name="top" x="614" y="1500"/>
</glyph>
<glyph name="F" format="2">
	<unicode hex="0046"/>
	<advance width="1153"/>
	<outline>
		<contour>
			<point x="82.0002441406" y="0" type="line"/>
			<point x="82.0002441406" y="100.001953125" type="line"/>
			<point x="290.9990234375" y="135.001953125" type="line"/>
			<point x="291.9990234375" y="763" type="line"/>
			<point x="290.9990234375" y="1359.7177734375" type="line"/>
			<point x="82.0002441406" y="1393.7177734375" type="line"/>
			<point x="82.0002441406" y="1500" type="line"/>
			<point x="1093.2575073242" y="1500" type="line"/>
			<point x="1093.2575073242" y="1084.4238891602" type="line"/>
			<point x="983.2571411133" y="1084.4238891602" type="line"/>
			<point x="950.2571411133" y="1380.3389282227" type="line"/>
			<point x="495.5848388672" y="1380.3389282227" type="line"/>
			<point x="468.5848388672" y="1354.3389282227" type="line"/>
			<point x="466.4219970703" y="763" type="line"/>
			<point x="468.5848388672" y="135.001953125" type="line"/>
			<point x="714.5836181641" y="100.001953125" type="line"/>
			<point x="714.5836181641" y="0" type="line"/>
		</contour>
		<contour>
			<point x="379.0012207031" y="715.9033203125" type="line"/>
			<point x="379.0012207031" y="823.5321655273" type="line"/>
			<point x="806.2571411133" y="828.4837646484" type="line"/>
			<point x="835.2571411133" y="1019.5485839844" type="line"/>
			<point x="945.2575073242" y="1019.5485839844" type="line"/>
			<point x="945.2575073242" y="499.7654418945" type="line"/>
			<point x="835.2571411133" y="499.7654418945" type="line"/>
			<point x="806.2571411133" y="711.9517211914" type="line"/>
		</contour>
	</outline>
	<anchor name="bottom" x="578" y="0"/>
	<anchor name="top" x="622" y="1500"/>
</glyph>
<glyph name="G" format="2">
	<unicode hex="0047"/>
	<advance width="1568"/>
	<outline>
		<contour>
			<point x="81.0009765625" y="730" type="qcurve" smooth="yes"/>
			<point x="81.0009765625" y="1080"/>
			<point x="537.2781982422" y="1519"/>
			<point x="801.4586791992" y="1519" type="qcurve" smooth="yes"/>
			<point x="956.807800293" y="1519"/>
			<point x="1111.9067382812" y="1454.6451416016"/>
			<point x="1140.7294921875" y="1413.2902832031" type="qcurve"/>
			<point x="1167.8204345703" y="1500" type="line"/>
			<point x="1279.7662353516" y="1500" type="line"/>
			<point x="1279.7662353516" y="1048.1538085938" type="line"/>
			<point x="1163.1910400391" y="1048.1538085938" type="line"/>
			<point x="1140.7294921875" y="1220" type="line" smooth="yes"/>
			<point x="1124.7294921875" y="1346"/>
			<point x="975.0209350586" y="1378.0486450195"/>
			<point x="814.3695678711" y="1378.0486450195" type="qcurve" smooth="yes"/>
			<point x="597.4898071289" y="1378.0486450195"/>
			<point x="270.982421875" y="1063.03125"/>
			<point x="272.982421875" y="745" type="qcurve" smooth="yes"/>
			<point x="273.982421875" y="446.6029052734"/>
			<point x="630.5883789062" y="99.3546142578"/>
			<point x="871.9224853516" y="99.3546142578" type="qcurve" smooth="yes"/>
			<point x="1007.4099121094" y="99.3546142578"/>
			<point x="1192.2271728516" y="178.4514160156"/>
			<point x="1225.3115234375" y="244.7578735352" type="qcurve"/>
			<point x="1225.3115234375" y="533.998046875" type="line"/>
			<point x="996.3121337891" y="560.998046875" type="line"/>
			<point x="996.3121337891" y="663" type="line"/>
			<point x="1564.6633300781" y="663" type="line"/>
			<point x="1564.6633300781" y="560.998046875" type="line"/>
			<point x="1397.6645507812" y="533.998046875" type="line"/>
			<point x="1397.6645507812" y="174" type="line"/>
			<point x="1357.9291381836" y="94"/>
			<point x="1087.1837158203" y="-29"/>
			<point x="896.9876098633" y="-29" type="qcurve" smooth="yes"/>
			<point x="566.5682983398" y="-29"/>
			<point x="81.0009765625" y="379"/>
		</contour>
	</outline>
	<anchor name="bottom" x="872" y="0"/>
	<anchor name="top" x="836" y="1500"/>
</glyph>
<glyph name="O" format="2">
	<unicode hex="004F"/>
	<advance width="1656"/>
	<outline>
		<contour>
			<point x="81.0009765625" y="728.2786865234" type="qcurve" smooth="yes"/>
			<point x="81.0009765625" y="1068"/>
			<point x="494.9969482422" y="1520"/>
			<point x="831.7744750977" y="1520" type="qcurve" smooth="yes"/>
			<point x="1162.5275268555" y="1520"/>
			<point x="1574.9523925781" y="1097"/>
			<point x="1574.9523925781" y="752" type="qcurve" smooth="yes"/>
			<point x="1574.9523925781" y="423"/>
			<point x="1156.2227783203" y="-31"/>
			<point x="828.7974243164" y="-31" type="qcurve" smooth="yes"/>
			<point x="515.6934814453" y="-31"/>
			<point x="81.0009765625" y="384.3715820312"/>
		</contour>
		<contour>
			<point x="267.982421875" y="779" type="qcurve" smooth="yes"/>
			<point x="267.982421875" y="476.2600097656"/>
			<point x="576.0864257812" y="103.5642700195"/>
			<point x="828.6345825195" y="103.5642700195" type="qcurve" smooth="yes"/>
			<point x="1103.0874023438" y="103.5642700195"/>
			<point x="1388.9709472656" y="435.6806640625"/>
			<point x="1388.9709472656" y="749" type="qcurve" smooth="yes"/>
			<point x="1388.9709472656" y="1031.66796875"/>
			<point x="1094.2135620117" y="1380.9196166992"/>
			<point x="837.3558959961" y="1380.9196166992" type="qcurve" smooth="yes"/>
			<point x="564.3554077148" y="1380.9196166992"/>
			<point x="267.982421875" y="1059.9936523438"/>
		</contour>
	</outline>
	<anchor name="bottom" x="832" y="0"/>
	<anchor name="center" x="832" y="750"/>
	<anchor name="ogonek" x="1064" y="0"/>
	<anchor name="top" x="832" y="1500"/>
	<anchor name="topright" x="1028" y="1500"/>
	<anchor name="tonos" x="140" y="1500"/>
	<anchor name="_yu_dash" x="169" y="755"/>
</glyph>
<glyph name="S" format="2">
	<unicode hex="0053"/>
	<advance width="1115"/>
	<outline>
		<contour>
			<point x="70.8327636719" y="0" type="line"/>
			<point x="70.8327636719" y="528.3234863281" type="line"/>
			<point x="189.6447753906" y="528.3234863281" type="line"/>
			<point x="210.8876953125" y="371.0481567383" type="line" smooth="yes"/>
			<point x="225.8876953125" y="259.0481567383"/>
			<point x="401.469543457" y="99.0481567383"/>
			<point x="566.4969482422" y="99.0481567383" type="qcurve" smooth="yes"/>
			<point x="709.4020996094" y="99.0481567383"/>
			<point x="865.2164306641" y="233.8670043945"/>
			<point x="865.5256958008" y="352.5883789062" type="qcurve" smooth="yes"/>
			<point x="865.8349609375" y="492.5170288086"/>
			<point x="693.9516601562" y="633.3639526367"/>
			<point x="488.4143676758" y="721.1934814453" type="qcurve" smooth="yes"/>
			<point x="283.2838745117" y="801.2128295898"/>
			<point x="107.6926879883" y="992.8819580078"/>
			<point x="107.6926879883" y="1143.39453125" type="qcurve" smooth="yes"/>
			<point x="107.6926879883" y="1298.0458984375"/>
			<point x="316.4807739258" y="1519"/>
			<point x="489.7628173828" y="1519" type="qcurve" smooth="yes"/>
			<point x="611.2789916992" y="1519"/>
			<point x="751.7545776367" y="1449.5814208984"/>
			<point x="798.9978027344" y="1389" type="qcurve"/>
			<point x="821.7590332031" y="1487" type="line"/>
			<point x="937.1789550781" y="1487" type="line"/>
			<point x="937.1789550781" y="1011.0250244141" type="line"/>
			<point x="819.4337158203" y="1011.0250244141" type="line"/>
			<point x="796.1422119141" y="1183.8712158203" type="line" smooth="yes"/>
			<point x="785.3050537109" y="1267.3127441406"/>
			<point x="605.2512207031" y="1385.8712158203"/>
			<point x="511.7365722656" y="1385.8712158203" type="qcurve" smooth="yes"/>
			<point x="372.9981079102" y="1385.8712158203"/>
			<point x="284.3061523438" y="1278.9208984375"/>
			<point x="284.6154174805" y="1188.3258666992" type="qcurve" smooth="yes"/>
			<point x="284.9246826172" y="1094.7258300781"/>
			<point x="390.4799804688" y="957.6754150391"/>
			<point x="612.7064208984" y="873.2006225586" type="qcurve" smooth="yes"/>
			<point x="806.0892944336" y="779.7280273438"/>
			<point x="1049.0467529297" y="576.1180419922"/>
			<point x="1049.0467529297" y="404.9311523438" type="qcurve" smooth="yes"/>
			<point x="1049.0467529297" y="227.0010986328"/>
			<point x="778.5438842773" y="-27"/>
			<point x="570.8779296875" y="-27" type="qcurve" smooth="yes"/>
			<point x="451.23046875" y="-27"/>
			<point x="263.4719238281" y="59"/>
			<point x="211.6148681641" y="128" type="qcurve"/>
			<point x="183.7907104492" y="0" type="line"/>
		</contour>
	</outline>
	<anchor name="bottom" x="599" y="0"/>
	<anchor name="top" x="514" y="1500"/>
</glyph>
<glyph name="Z" format="2">
	<unicode hex="005A"/>
	<advance width="1152"/>
	<outline>
		<contour>
			<point x="29.4185791016" y="0" type="line"/>
			<point x="-2.565246582" y="94.5159912109" type="line"/>
			<point x="889.311706543" y="1370.3389282227" type="line"/>
			<point x="883.311706543" y="1380.3389282227" type="line"/>
			<point x="218.3364257812" y="1380.3389282227" type="line"/>
			<point x="165.8991699219" y="1053.4036254883" type="line"/>
			<point x="56.2269287109" y="1053.4036254883" type="line"/>
			<point x="56.2269287109" y="1500" type="line"/>
			<point x="1091.443359375" y="1500" type="line"/>
			<point x="1091.443359375" y="1398.532409668" type="line"/>
			<point x="204.8967285156" y="125.0159301758" type="line"/>
			<point x="209.8967285156" y="114.0159301758" type="line"/>
			<point x="959.4625854492" y="114.0159301758" type="line"/>
			<point x="1033.0147705078" y="431.2953491211" type="line"/>
			<point x="1143.4442749023" y="431.2953491211" type="line"/>
			<point x="1099.0920410156" y="0" type="line"/>
		</contour>
	</outline>
	<anchor name="bottom" x="583" y="0"/>
	<anchor name="top" x="583" y="1500"/>
	<anchor name="_liga" x="0" y="0"/>
</glyph>
<glyph name="a" format="2">
	<unicode hex="0061"/>
	<advance width="1034"/>
	<outline>
		<contour>
			<point x="51.2846679688" y="248.5322265625" type="qcurve" smooth="yes"/>
			<point x="51.2846679688" y="381.7983398438"/>
			<point x="335.0921630859" y="591.168762207"/>
			<point x="689.400390625" y="648.706237793" type="qcurve"/>
			<point x="692.400390625" y="560.3251342773" type="line"/>
			<point x="479.2446289062" y="517.9354248047"/>
			<point x="226.7819824219" y="377.8752441406"/>
			<point x="226.7819824219" y="263.1425170898" type="qcurve" smooth="yes"/>
			<point x="226.7819824219" y="168.6700439453"/>
			<point x="317.3653564453" y="82.2945556641"/>
			<point x="411.4158935547" y="82.2945556641" type="qcurve" smooth="yes"/>
			<point x="481.6051025391" y="82.2945556641"/>
			<point x="630.1102294922" y="195.8195800781"/>
			<point x="644.3620605469" y="244.5723876953" type="qcurve"/>
			<point x="645.9053344727" y="593.4063110352" type="line" smooth="yes"/>
			<point x="646.4362182617" y="786.9633789062"/>
			<point x="524.12109375" y="909.8084106445"/>
			<point x="455.848815918" y="909.8084106445" type="qcurve" smooth="yes"/>
			<point x="363.2932128906" y="909.8084106445"/>
			<point x="311.0208129883" y="876.4365844727"/>
			<point x="293.8848266602" y="865.1157226562" type="qcurve"/>
			<point x="290.5160522461" y="851.4235839844"/>
			<point x="315.4426879883" y="814.3360595703"/>
			<point x="318.5168457031" y="791.0272216797" type="qcurve" smooth="yes"/>
			<point x="325.4781494141" y="750.6315917969"/>
			<point x="276.9151611328" y="692.2727050781"/>
			<point x="231.8033447266" y="692.2727050781" type="qcurve" smooth="yes"/>
			<point x="183.017578125" y="692.2727050781"/>
			<point x="126.8225097656" y="756.1007080078"/>
			<point x="126.8225097656" y="822.5831298828" type="qcurve" smooth="yes"/>
			<point x="126.8225097656" y="891.7684326172"/>
			<point x="300.6352539062" y="1024.1022949219"/>
			<point x="457.0386962891" y="1024.1022949219" type="qcurve" smooth="yes"/>
			<point x="625.8776855469" y="1024.1022949219"/>
			<point x="803.7725830078" y="848.1959228516"/>
			<point x="805.7725830078" y="644.1398925781" type="qcurve" smooth="yes"/>
			<point x="809.7725830078" y="107" type="line"/>
			<point x="962.7713623047" y="80" type="line"/>
			<point x="962.7713623047" y="0" type="line"/>
			<point x="698.9930419922" y="0" type="line"/>
			<point x="659.91796875" y="42.8280029297" type="line"/>
			<point x="644.8929443359" y="146.3326416016" type="line"/>
			<point x="615.5920410156" y="85.3848876953"/>
			<point x="445.0358886719" y="-15"/>
			<point x="318.2401123047" y="-15" type="qcurve" smooth="yes"/>
			<point x="202.9620361328" y="-15"/>
			<point x="51.2846679688" y="129.3060302734"/>
		</contour>
	</outline>
	<anchor name="bottom" x="548" y="0"/>
	<anchor name="ogonek" x="878" y="0"/>
	<anchor name="top" x="514" y="1000"/>
</glyph>
<glyph name="b" format="2">
	<unicode hex="0062"/>
	<advance width="1157"/>
	<outline>
		<contour>
			<point x="175.9271850586" y="0" type="line"/>
			<point x="179.7669067383" y="427" type="line"/>
			<point x="172.9271850586" y="1390.37890625" type="line"/>
			<point x="-16.0719604492" y="1411.37890625" type="line"/>
			<point x="-16.0719604492" y="1509.37890625" type="line"/>
			<point x="313.2141723633" y="1533.9965820312" type="line"/>
			<point x="321.2141723633" y="1528.9965820312" type="line"/>
			<point x="336.584777832" y="1507.9965820312" type="line"/>
			<point x="336.5230102539" y="847.7829589844" type="line"/>
			<point x="388.8804931641" y="916.9293212891"/>
			<point x="580.0092773438" y="1022.1022949219"/>
			<point x="683.3615112305" y="1022.1022949219" type="qcurve" smooth="yes"/>
			<point x="877.9361572266" y="1022.1022949219"/>
			<point x="1092.9772949219" y="755.5567626953"/>
			<point x="1092.9772949219" y="531.1043701172" type="qcurve" smooth="yes"/>
			<point x="1092.9772949219" y="286.6120605469"/>
			<point x="842.8881225586" y="-12"/>
			<point x="640.3318481445" y="-12" type="qcurve" smooth="yes"/>
			<point x="555.0542602539" y="-12"/>
			<point x="397.0076904297" y="33.8238525391"/>
			<point x="333.1141357422" y="80.5708007812" type="qcurve"/>
			<point x="262.1116943359" y="0" type="line"/>
		</contour>
		<contour>
			<point x="331.2141723633" y="427.9180908203" type="line"/>
			<point x="334.2141723633" y="210.9821777344" type="line"/>
			<point x="347.6224975586" y="167.1206665039"/>
			<point x="521.7778320312" y="87.219909668"/>
			<point x="610.7919921875" y="87.219909668" type="qcurve" smooth="yes"/>
			<point x="731.4400634766" y="87.219909668"/>
			<point x="912.0108642578" y="302.8802490234"/>
			<point x="912.0108642578" y="502.0511474609" type="qcurve" smooth="yes"/>
			<point x="912.0108642578" y="687.6937255859"/>
			<point x="755.4556884766" y="907.3269042969"/>
			<point x="639.8076171875" y="907.3269042969" type="qcurve" smooth="yes"/>
			<point x="528.5858154297" y="907.3269042969"/>
			<point x="365.973449707" y="787.598449707"/>
			<point x="331.2141723633" y="723.7619628906" type="qcurve"/>
		</contour>
	</outline>
	<anchor name="bottom" x="571" y="0"/>
	<anchor name="top" x="571" y="1533"/>
</glyph>
<glyph name="c" format="2">
	<unicode hex="0063"/>
	<advance width="956"/>
	<outline>
		<contour>
			<point x="63.9736328125" y="486.3655395508" type="qcurve" smooth="yes"/>
			<point x="63.9736328125" y="721.0623779297"/>
			<point x="308.2546386719" y="1021.9958496094"/>
			<point x="508.6757202148" y="1021.9958496094" type="qcurve" smooth="yes"/>
			<point x="608.3466796875" y="1021.9958496094"/>
			<point x="711.5270385742" y="978.7739257812"/>
			<point x="743.9107055664" y="938.6259765625" type="qcurve"/>
			<point x="765.3671264648" y="1000.40625" type="line"/>
			<point x="864.3292236328" y="1000.40625" type="line"/>
			<point x="874.3292236328" y="702.1750488281" type="line"/>
			<point x="776.6231079102" y="702.1750488281" type="line"/>
			<point x="752.6231079102" y="768.9958496094" type="line" smooth="yes"/>
			<point x="732.4744873047" y="843.73828125"/>
			<point x="630.4158325195" y="917.7759399414"/>
			<point x="549.2535400391" y="917.7759399414" type="qcurve" smooth="yes"/>
			<point x="407.60546875" y="917.7759399414"/>
			<point x="236.7547607422" y="706.5823974609"/>
			<point x="237.7547607422" y="499.9979248047" type="qcurve" smooth="yes"/>
			<point x="237.7547607422" y="287.9417724609"/>
			<point x="437.5500488281" y="88.4055175781"/>
			<point x="585.1981201172" y="88.4055175781" type="qcurve" smooth="yes"/>
			<point x="676.1330566406" y="88.4055175781"/>
			<point x="833.7619628906" y="159.8137207031"/>
			<point x="876.5983886719" y="214" type="qcurve"/>
			<point x="924.5717163086" y="158.5568237305" type="line"/>
			<point x="879.427734375" y="77.4451904297"/>
			<point x="672.064453125" y="-22"/>
			<point x="520.2977294922" y="-22" type="qcurve" smooth="yes"/>
			<point x="335.9299316406" y="-22"/>
			<point x="63.9736328125" y="238.4566650391"/>
		</contour>
	</outline>
	<anchor name="bottom" x="563" y="0"/>
	<anchor name="top" x="534" y="1000"/>
</glyph>
<glyph name="d" format="2">
	<unicode hex="0064"/>
	<advance width="1188"/>
	<outline>
		<contour>
			<point x="64.0947265625" y="484.2817382812" type="qcurve" smooth="yes"/>
			<point x="64.0947265625" y="715.3424072266"/>
			<point x="330.3334960938" y="1022.1022949219"/>
			<point x="516.85546875" y="1022.1022949219" type="qcurve" smooth="yes"/>
			<point x="622.7899169922" y="1022.1022949219"/>
			<point x="796.3438720703" y="962.0091552734"/>
			<point x="836.2047119141" y="917.9293212891" type="qcurve"/>
			<point x="830.1666259766" y="1400.9965820312" type="line"/>
			<point x="660.1684570312" y="1421.9965820312" type="line"/>
			<point x="660.1684570312" y="1519.9965820312" type="line"/>
			<point x="965.0268554688" y="1533.9965820312" type="line"/>
			<point x="975.8397216797" y="1528.9965820312" type="line"/>
			<point x="998.6427001953" y="1507.9965820312" type="line"/>
			<point x="994.98828125" y="537.5924682617" type="line"/>
			<point x="1006.3414306641" y="107" type="line"/>
			<point x="1159.3402099609" y="80" type="line"/>
			<point x="1159.3402099609" y="0" type="line"/>
			<point x="890.2823486328" y="0" type="line"/>
			<point x="860.8698730469" y="24" type="line"/>
			<point x="841.6258544922" y="152.3193359375" type="line"/>
			<point x="800.2272949219" y="77.6441040039"/>
			<point x="613.5249023438" y="-11"/>
			<point x="505.8065185547" y="-11" type="qcurve" smooth="yes"/>
			<point x="333.6823730469" y="-11"/>
			<point x="64.0947265625" y="261.9422607422"/>
		</contour>
		<contour>
			<point x="245.0611572266" y="503.0511474609" type="qcurve" smooth="yes"/>
			<point x="245.0611572266" y="333.1466674805"/>
			<point x="422.9992675781" y="102.7384033203"/>
			<point x="537.3956298828" y="102.219909668" type="qcurve" smooth="yes"/>
			<point x="623.6578369141" y="101.7014160156"/>
			<point x="796.1779174805" y="186.8507080078"/>
			<point x="838.2764892578" y="261.0444335938" type="qcurve"/>
			<point x="844.4617919922" y="536.0777587891" type="line"/>
			<point x="843.4617919922" y="769.6302490234" type="line"/>
			<point x="818.1142578125" y="834.9719238281"/>
			<point x="655.7444458008" y="926.0303344727"/>
			<point x="550.8879394531" y="926.0303344727" type="qcurve" smooth="yes"/>
			<point x="442.4320068359" y="926.0303344727"/>
			<point x="245.0611572266" y="673.5598754883"/>
		</contour>
	</outline>
	<anchor name="bottom" x="604" y="0"/>
	<anchor name="center" x="876" y="1202"/>
	<anchor name="top" x="604" y="1534"/>
	<anchor name="topright" x="961" y="1000"/>
	<anchor name="liga" x="1207" y="0"/>
</glyph>
<glyph name="e" format="2">
	<unicode hex="0065"/>
	<advance width="978"/>
	<outline>
		<contour>
			<point x="63.6708984375" y="501.3137207031" type="qcurve" smooth="yes"/>
			<point x="63.6708984375" y="734.3305664062"/>
			<point x="331.4781494141" y="1023.9692382812"/>
			<point x="524.0394287109" y="1023.9692382812" type="qcurve" smooth="yes"/>
			<point x="719.680847168" y="1023.9692382812"/>
			<point x="927.6693115234" y="788.5966796875"/>
			<point x="949.3861083984" y="591.1309814453" type="qcurve"/>
			<point x="949.3861083984" y="544.1686401367" type="line"/>
			<point x="182.2283935547" y="544.1686401367" type="line"/>
			<point x="182.0430908203" y="633.9816894531" type="line"/>
			<point x="784.2841796875" y="633.9816894531" type="line"/>
			<point x="769.859375" y="737.6849975586"/>
			<point x="645.6533203125" y="913.0458984375"/>
			<point x="516.6622314453" y="913.0458984375" type="qcurve" smooth="yes"/>
			<point x="389.0069580078" y="913.0458984375"/>
			<point x="238.526184082" y="709.1212768555"/>
			<point x="239.0446777344" y="521.9313964844" type="qcurve" smooth="yes"/>
			<point x="240.5631713867" y="320.1848754883"/>
			<point x="456.0098266602" y="81.7020874023"/>
			<point x="602.3692016602" y="81.7020874023" type="qcurve" smooth="yes"/>
			<point x="701.3046875" y="81.7020874023"/>
			<point x="827.4174804688" y="151.5911254883"/>
			<point x="861.6310424805" y="201.4431762695" type="qcurve"/>
			<point x="909.9262695312" y="150" type="line"/>
			<point x="866.9013671875" y="81"/>
			<point x="723.1026611328" y="-22"/>
			<point x="580.0551757812" y="-22" type="qcurve" smooth="yes"/>
			<point x="344.5979003906" y="-22"/>
			<point x="63.6708984375" y="254.0380859375"/>
		</contour>
	</outline>
	<anchor name="bottom" x="578" y="0"/>
	<anchor name="ogonek" x="744" y="0"/>
	<anchor name="top" x="539" y="1000"/>
</glyph>
<glyph name="f" format="2">
	<unicode hex="0066"/>
	<advance width="604"/>
	<outline>
		<contour>
			<point x="24.9192504883" y="0" type="line"/>
			<point x="24.9192504883" y="80" type="line"/>
			<point x="219.3184204102" y="107" type="line"/>
			<point x="224.3184204102" y="527" type="line"/>
			<point x="224.3184204102" y="885.9432983398" type="line"/>
			<point x="40.9277954102" y="899.9432983398" type="line"/>
			<point x="40.9277954102" y="991.1632080078" type="line"/>
			<point x="225.3184204102" y="1002.1632080078" type="line"/>
			<point x="224.5635375977" y="1366.0185546875" type="line" smooth="yes"/>
			<point x="223.5914916992" y="1418.3452148438"/>
			<point x="352.1832885742" y="1532.0361328125"/>
			<point x="454.7769165039" y="1532.0361328125" type="qcurve" smooth="yes"/>
			<point x="495.2909545898" y="1532.0361328125"/>
			<point x="567.4547729492" y="1518.2710571289"/>
			<point x="595.9631347656" y="1503.7363891602" type="qcurve" smooth="yes"/>
			<point x="605.3602294922" y="1498.9365234375" type="line"/>
			<point x="586.6037597656" y="1416.4365234375" type="line"/>
			<point x="579.0549316406" y="1417.6363525391" type="line" smooth="yes"/>
			<point x="566.0661621094" y="1422.8671264648"/>
			<point x="539.1346435547" y="1427.0361328125"/>
			<point x="516.3224487305" y="1427.0361328125" type="qcurve" smooth="yes"/>
			<point x="441.848815918" y="1427.0361328125"/>
			<point x="380.8867797852" y="1355.5089111328"/>
			<point x="381.0745239258" y="1326.6580810547" type="qcurve" smooth="yes"/>
			<point x="382.667175293" y="998.1632080078" type="line"/>
			<point x="577.6740112305" y="998.1632080078" type="line"/>
			<point x="577.6740112305" y="889.9432983398" type="line"/>
			<point x="382.667175293" y="889.9432983398" type="line"/>
			<point x="381.667175293" y="527" type="line"/>
			<point x="385.667175293" y="107" type="line"/>
			<point x="591.4661865234" y="80" type="line"/>
			<point x="591.4661865234" y="0" type="line"/>
		</contour>
	</outline>
	<anchor name="bottom" x="314" y="0"/>
	<anchor name="top" x="314" y="1536"/>
</glyph>
<glyph name="g" format="2">
	<unicode hex="0067"/>
	<advance width="1052"/>
	<outline>
		<contour>
			<point x="42.2398681641" y="-265.3616943359" type="qcurve" smooth="yes"/>
			<point x="42.2398681641" y="-166.4544677734"/>
			<point x="152.873046875" y="-24.5954589844"/>
			<point x="284.6723632812" y="32.7786254883" type="qcurve"/>
			<point x="387.6152954102" y="10.1224975586" type="line"/>
			<point x="237.0848388672" y="-67.5825805664"/>
			<point x="180.4150390625" y="-186.8867797852"/>
			<point x="180.4150390625" y="-250.787109375" type="qcurve" smooth="yes"/>
			<point x="180.4150390625" y="-340.7410888672"/>
			<point x="363.7357788086" y="-413.4095458984"/>
			<point x="546.4421386719" y="-413.4095458984" type="qcurve" smooth="yes"/>
			<point x="704.2313842773" y="-413.4095458984"/>
			<point x="878.1038818359" y="-337.6820068359"/>
			<point x="878.1038818359" y="-238.8669433594" type="qcurve" smooth="yes"/>
			<point x="878.1038818359" y="-144.7338867188"/>
			<point x="743.94140625" y="-103.9616699219"/>
			<point x="524.7752685547" y="-92.7541503906" type="qcurve" smooth="yes"/>
			<point x="327.559753418" y="-79.9672851562"/>
			<point x="97.8623046875" y="17.9388427734"/>
			<point x="97.8623046875" y="118.1701660156" type="qcurve" smooth="yes"/>
			<point x="97.8623046875" y="224.0096435547"/>
			<point x="248.788269043" y="331.7216796875"/>
			<point x="308.8846435547" y="352.1060180664" type="qcurve"/>
			<point x="348.7285766602" y="290.5811767578" type="line"/>
			<point x="299.7704467773" y="274.3460693359"/>
			<point x="224.9874267578" y="221.482421875"/>
			<point x="224.9874267578" y="172.09765625" type="qcurve" smooth="yes"/>
			<point x="224.9874267578" y="125.3885498047"/>
			<point x="371.1588134766" y="62.6405029297"/>
			<point x="574.2215576172" y="53.2239990234" type="qcurve" smooth="yes"/>
			<point x="765.6126708984" y="46.2845458984"/>
			<point x="1005.5745849609" y="-41.3176269531"/>
			<point x="1005.5745849609" y="-185.0433349609" type="qcurve" smooth="yes"/>
			<point x="1005.5745849609" y="-322.8786621094"/>
			<point x="769.0145263672" y="-510"/>
			<point x="523.8078613281" y="-510" type="qcurve" smooth="yes"/>
			<point x="303.9641113281" y="-510"/>
			<point x="42.2398681641" y="-382.5926513672"/>
		</contour>
		<contour>
			<point x="110.9993896484" y="626.4141845703" type="qcurve" smooth="yes"/>
			<point x="110.9993896484" y="795.481262207"/>
			<point x="352.3575439453" y="1023.9692382812"/>
			<point x="531.0655517578" y="1023.9692382812" type="qcurve" smooth="yes"/>
			<point x="705.6057128906" y="1023.9692382812"/>
			<point x="949.43359375" y="814.481262207"/>
			<point x="949.43359375" y="639.6745605469" type="qcurve" smooth="yes"/>
			<point x="950.43359375" y="481.7436523438"/>
			<point x="708.4484863281" y="216.2171020508"/>
			<point x="539.0587158203" y="216.2171020508" type="qcurve" smooth="yes"/>
			<point x="358.3850097656" y="216.2171020508"/>
			<point x="110.9993896484" y="458.7560424805"/>
		</contour>
		<contour>
			<point x="288.7805175781" y="629.3005371094" type="qcurve" smooth="yes"/>
			<point x="288.7805175781" y="495.584777832"/>
			<point x="417.5902099609" y="317.4739990234"/>
			<point x="532.7093505859" y="317.4739990234" type="qcurve" smooth="yes"/>
			<point x="657.8284912109" y="317.4739990234"/>
			<point x="769.5906982422" y="500.6217651367"/>
			<point x="769.5906982422" y="629.3005371094" type="qcurve" smooth="yes"/>
			<point x="769.5906982422" y="746.0162963867"/>
			<point x="650.5408935547" y="912.4904174805"/>
			<point x="534.4217529297" y="912.4904174805" type="qcurve" smooth="yes"/>
			<point x="410.3026123047" y="912.4904174805"/>
			<point x="288.7805175781" y="744.5347900391"/>
		</contour>
		<contour>
			<point x="609.4304199219" y="908.6746826172" type="line"/>
			<point x="594.4304199219" y="991.9692382812" type="line"/>
			<point x="1058.4969482422" y="992.9692382812" type="line"/>
			<point x="1058.4969482422" y="890.0082397461" type="line"/>
		</contour>
	</outline>
	<anchor name="bottom" x="524" y="-416"/>
	<anchor name="top" x="484" y="1000"/>
</glyph>
<glyph name="h" format="2">
	<unicode hex="0068"/>
	<advance width="1201"/>
	<outline>
		<contour>
			<point x="75.4857177734" y="0" type="line"/>
			<point x="75.4857177734" y="80" type="line"/>
			<point x="222.2844238281" y="107" type="line"/>
			<point x="224.2844238281" y="529.1156005859" type="line"/>
			<point x="222.2844238281" y="1400.9965820312" type="line"/>
			<point x="39.2856445312" y="1421.9965820312" type="line"/>
			<point x="39.2856445312" y="1519.9965820312" type="line"/>
			<point x="365.7567138672" y="1533.9965820312" type="line"/>
			<point x="373.7567138672" y="1528.9965820312" type="line"/>
			<point x="382.7567138672" y="1507.9965820312" type="line"/>
			<point x="383.7567138672" y="854.3015136719" type="line"/>
			<point x="443.0372314453" y="928.6505126953"/>
			<point x="596.5616455078" y="1022.9958496094"/>
			<point x="721.0159912109" y="1022.9958496094" type="qcurve" smooth="yes"/>
			<point x="859.0866699219" y="1022.9958496094"/>
			<point x="998.3591308594" y="881.3124389648"/>
			<point x="998.3591308594" y="762.6247558594" type="qcurve" smooth="yes"/>
			<point x="998.3591308594" y="691.1909179688"/>
			<point x="997.8688964844" y="558.3168945312"/>
			<point x="997.8688964844" y="529.1156005859" type="qcurve" smooth="yes"/>
			<point x="1004.0944824219" y="107" type="line"/>
			<point x="1149.4937744141" y="80" type="line"/>
			<point x="1149.4937744141" y="0" type="line"/>
			<point x="693.2152099609" y="0" type="line"/>
			<point x="693.2152099609" y="80" type="line"/>
			<point x="837.21484375" y="107" type="line"/>
			<point x="838.234375" y="529.1156005859" type="line"/>
			<point x="838.234375" y="700.1090087891" type="line" smooth="yes"/>
			<point x="838.234375" y="769.1365966797"/>
			<point x="734.4449462891" y="872.8009643555"/>
			<point x="639.4638671875" y="872.8009643555" type="qcurve" smooth="yes"/>
			<point x="560.6703491211" y="872.8009643555"/>
			<point x="430.3210449219" y="799.3279418945"/>
			<point x="383.7567138672" y="720.9044799805" type="qcurve"/>
			<point x="383.7567138672" y="529.1022949219" type="line"/>
			<point x="391.7567138672" y="107" type="line"/>
			<point x="531.7554321289" y="80" type="line"/>
			<point x="531.7554321289" y="0" type="line"/>
		</contour>
	</outline>
	<anchor name="bottom" x="629" y="0"/>
	<anchor name="center" x="347" y="1202"/>
	<anchor name="top" x="304" y="1534"/>
</glyph>
<glyph name="k" format="2">
	<unicode hex="006B"/>
	<advance width="1066"/>
	<outline>
		<contour>
			<point x="76.2142944336" y="0" type="line"/>
			<point x="76.2142944336" y="80" type="line"/>
			<point x="224.2130737305" y="107" type="line"/>
			<point x="227.2748413086" y="527" type="line"/>
			<point x="224.2130737305" y="1400.9965820312" type="line"/>
			<point x="35.2139282227" y="1421.9965820312" type="line"/>
			<point x="35.2139282227" y="1519.9965820312" type="line"/>
			<point x="368.7471313477" y="1533.9965820312" type="line"/>
			<point x="376.7471313477" y="1528.9965820312" type="line"/>
			<point x="385.7471313477" y="1507.9965820312" type="line"/>
			<point x="385.6853637695" y="527" type="line"/>
			<point x="394.7471313477" y="107" type="line"/>
			<point x="535.7459106445" y="80" type="line"/>
			<point x="535.7459106445" y="0" type="line"/>
		</contour>
		<contour>
			<point x="323.7455444336" y="404.1553344727" type="line"/>
			<point x="321.7455444336" y="524.0830078125" type="line"/>
			<point x="743.2754516602" y="889.9692382812" type="line"/>
			<point x="619.2766723633" y="911.9692382812" type="line"/>
			<point x="619.2766723633" y="1001.9692382812" type="line"/>
			<point x="1023.6917724609" y="1001.9692382812" type="line"/>
			<point x="1023.6917724609" y="911.9692382812" type="line"/>
			<point x="885.6929931641" y="888.9692382812" type="line"/>
		</contour>
		<contour>
			<point x="467.9307250977" y="544.4044189453" type="line"/>
			<point x="583.0717163086" y="650.5328369141" type="line"/>
			<point x="957.9862670898" y="107" type="line"/>
			<point x="1090.9850463867" y="80" type="line"/>
			<point x="1090.9850463867" y="0" type="line"/>
			<point x="764.4335327148" y="0" type="line"/>
			<point x="748.2705688477" y="75.1594238281" type="line"/>
			<point x="781.0848999023" y="90.396484375" type="line"/>
		</contour>
	</outline>
	<anchor name="bottom" x="608" y="0"/>
	<anchor name="top" x="578" y="1534"/>
</glyph>
<glyph name="m" format="2">
	<unicode hex="006D"/>
	<advance width="1882"/>
	<outline>
		<contour>
			<point x="76.2142944336" y="0" type="line"/>
			<point x="76.2142944336" y="80" type="line"/>
			<point x="224.2130737305" y="107" type="line"/>
			<point x="227.2748413086" y="529.1156005859" type="line"/>
			<point x="224.2130737305" y="866.9692382812" type="line"/>
			<point x="62.2142944336" y="886.9692382812" type="line"/>
			<point x="62.2142944336" y="987.9692382812" type="line"/>
			<point x="328.0428466797" y="1001.9692382812" type="line"/>
			<point x="358.9565429688" y="979.6604003906" type="line"/>
			<point x="386.7471313477" y="848.9241943359" type="line"/>
			<point x="442.6026000977" y="920.9345703125"/>
			<point x="631.3561401367" y="1022.9692382812"/>
			<point x="747.2159423828" y="1022.9692382812" type="qcurve" smooth="yes"/>
			<point x="865.2362060547" y="1022.9692382812"/>
			<point x="1013.8850097656" y="932.6077880859"/>
			<point x="1027.5541992188" y="843.0844726562" type="qcurve"/>
			<point x="1068.9661865234" y="908.748046875"/>
			<point x="1270.1484375" y="1022.9692382812"/>
			<point x="1404.9799194336" y="1022.9692382812" type="qcurve" smooth="yes"/>
			<point x="1552.8040771484" y="1022.9692382812"/>
			<point x="1687.962097168" y="899.9604492188"/>
			<point x="1687.962097168" y="756.2250976562" type="qcurve" smooth="yes"/>
			<point x="1687.962097168" y="702.2650146484"/>
			<point x="1685.3209838867" y="529.1022949219"/>
			<point x="1685.3076782227" y="529.1156005859" type="qcurve" smooth="yes"/>
			<point x="1692.962097168" y="107" type="line"/>
			<point x="1829.9608764648" y="80" type="line"/>
			<point x="1829.9608764648" y="0" type="line"/>
			<point x="1394.491027832" y="0" type="line"/>
			<point x="1394.491027832" y="80" type="line"/>
			<point x="1524.4898071289" y="107" type="line"/>
			<point x="1528.5885620117" y="529.1156005859" type="line"/>
			<point x="1528.5885620117" y="700.5411376953" type="line" smooth="yes"/>
			<point x="1528.5885620117" y="791.6085205078"/>
			<point x="1419.7687988281" y="881.5391845703"/>
			<point x="1324.4206542969" y="881.5391845703" type="qcurve" smooth="yes"/>
			<point x="1229.1781005859" y="881.5391845703"/>
			<point x="1079.5593261719" y="800.0401611328"/>
			<point x="1036.1220703125" y="720.1485595703" type="qcurve"/>
			<point x="1033.9985351562" y="716.1884765625"/>
			<point x="1032.9491577148" y="695.5305248659"/>
			<point x="1032.9491577148" y="529.1156005859" type="qcurve" smooth="yes"/>
			<point x="1041.1220703125" y="107" type="line"/>
			<point x="1178.1208496094" y="80" type="line"/>
			<point x="1178.1208496094" y="0" type="line"/>
			<point x="742.6510009766" y="0" type="line"/>
			<point x="742.6510009766" y="80" type="line"/>
			<point x="872.6497802734" y="107" type="line"/>
			<point x="875.7115478516" y="529.1156005859" type="line"/>
			<point x="875.7115478516" y="700.5411376953" type="line" smooth="yes"/>
			<point x="875.7115478516" y="791.6085205078"/>
			<point x="769.8619384766" y="881.5391845703"/>
			<point x="672.9494018555" y="881.5391845703" type="qcurve" smooth="yes"/>
			<point x="596.3114013672" y="881.5391845703"/>
			<point x="432.2569580078" y="787.0401611328"/>
			<point x="385.1544799805" y="713.1485595703" type="qcurve"/>
			<point x="384.6235961914" y="529.1156005859" type="line"/>
			<point x="393.6853637695" y="107" type="line"/>
			<point x="534.6841430664" y="80" type="line"/>
			<point x="534.6841430664" y="0" type="line"/>
		</contour>
	</outline>
	<anchor name="bottom" x="958" y="0"/>
	<anchor name="top" x="958" y="1000"/>
</glyph>
<glyph name="o" format="2">
	<unicode hex="006F"/>
	<advance width="1159"/>
	<outline>
		<contour>
			<point x="63.9736328125" y="494.1496582031" type="qcurve" smooth="yes"/>
			<point x="63.9736328125" y="700.9178466797"/>
			<point x="349.4895019531" y="1020.4549560547"/>
			<point x="575.8218994141" y="1020.4549560547" type="qcurve" smooth="yes"/>
			<point x="814.439453125" y="1020.4549560547"/>
			<point x="1094.85546875" y="738.4636230469"/>
			<point x="1094.85546875" y="507.0511474609" type="qcurve" smooth="yes"/>
			<point x="1094.85546875" y="290.6253662109"/>
			<point x="810.0688476562" y="-18.7810058594"/>
			<point x="581.8218994141" y="-18.7810058594" type="qcurve" smooth="yes"/>
			<point x="349.4857177734" y="-18.7810058594"/>
			<point x="63.9736328125" y="255.3884277344"/>
		</contour>
		<contour>
			<point x="239.8165283203" y="524.0511474609" type="qcurve" smooth="yes"/>
			<point x="240.8165283203" y="347.6468505859"/>
			<point x="429.8519287109" y="86.623840332"/>
			<point x="576.5" y="86.623840332" type="qcurve" smooth="yes"/>
			<point x="736.1480712891" y="86.623840332"/>
			<point x="913.8272705078" y="318.9989013672"/>
			<point x="913.8272705078" y="508.0511474609" type="qcurve" smooth="yes"/>
			<point x="913.8272705078" y="679.3973388672"/>
			<point x="726.1480712891" y="903.9391479492"/>
			<point x="578.5" y="903.9391479492" type="qcurve" smooth="yes"/>
			<point x="414.8519287109" y="903.9391479492"/>
			<point x="238.8165283203" y="705.1629638672"/>
		</contour>
	</outline>
	<anchor name="bottom" x="584" y="0"/>
	<anchor name="center" x="584" y="500"/>
	<anchor name="ogonek" x="747" y="0"/>
	<anchor name="top" x="584" y="1000"/>
	<anchor name="topright" x="751" y="1000"/>
	<anchor name="GRKtop" x="584" y="1000"/>
	<anchor name="yu_dash" x="150" y="500"/>
</glyph>
<glyph name="s" format="2">
	<unicode hex="0073"/>
	<advance width="872"/>
	<outline>
		<contour>
			<point x="103.4770507812" y="10.5895996094" type="line"/>
			<point x="103.4770507812" y="352.744140625" type="line"/>
			<point x="210.9982299805" y="352.744140625" type="line"/>
			<point x="221.5908813477" y="327.9233398438" type="line" smooth="yes"/>
			<point x="245.036315918" y="216.151550293"/>
			<point x="331.0380249023" y="89.8493652344"/>
			<point x="440.4229736328" y="89.8493652344" type="qcurve" smooth="yes"/>
			<point x="534.787109375" y="89.8493652344"/>
			<point x="644.1087036133" y="212.3916625977"/>
			<point x="644.1087036133" y="287.8443603516" type="qcurve" smooth="yes"/>
			<point x="644.1087036133" y="372.7625732422"/>
			<point x="564.2956542969" y="422.6787109375"/>
			<point x="393.3330078125" y="474.3973388672" type="qcurve" smooth="yes"/>
			<point x="233.0018310547" y="518.1518554688"/>
			<point x="115.18359375" y="634.8737792969"/>
			<point x="115.18359375" y="740.0147705078" type="qcurve" smooth="yes"/>
			<point x="115.18359375" y="861.1323242188"/>
			<point x="268.7943115234" y="1023.9692382812"/>
			<point x="419.5404052734" y="1023.9692382812" type="qcurve" smooth="yes"/>
			<point x="499.0137939453" y="1023.9692382812"/>
			<point x="568.1005249023" y="979.0927734375"/>
			<point x="601.9782104492" y="943.0310058594" type="qcurve"/>
			<point x="626.5708618164" y="991.3796386719" type="line"/>
			<point x="721.7952880859" y="991.3796386719" type="line"/>
			<point x="721.7952880859" y="679.7805786133" type="line"/>
			<point x="615.237121582" y="679.7805786133" type="line"/>
			<point x="602.1135864258" y="742.9232788086" type="line" smooth="yes"/>
			<point x="588.6956176758" y="841.0947875977"/>
			<point x="497.5547485352" y="916.6013793945"/>
			<point x="430.3676147461" y="916.6013793945" type="qcurve" smooth="yes"/>
			<point x="349.9214477539" y="916.6013793945"/>
			<point x="270.3941650391" y="843.0982666016"/>
			<point x="270.3941650391" y="780.341003418" type="qcurve" smooth="yes"/>
			<point x="270.3941650391" y="712.3131713867"/>
			<point x="335.7724609375" y="640.9549560547"/>
			<point x="516.8948974609" y="604.4025878906" type="qcurve" smooth="yes"/>
			<point x="620.2917480469" y="582.9626464844"/>
			<point x="799.9613037109" y="440.7045898438"/>
			<point x="799.9613037109" y="286.9490966797" type="qcurve" smooth="yes"/>
			<point x="799.9613037109" y="148.8166503906"/>
			<point x="613.9524536133" y="-20"/>
			<point x="477.602355957" y="-20" type="qcurve" smooth="yes"/>
			<point x="363.2078857422" y="-20"/>
			<point x="281.6920776367" y="47.0617675781"/>
			<point x="242.9485473633" y="91.9382324219" type="qcurve"/>
			<point x="197.1705932617" y="10.5895996094" type="line"/>
		</contour>
	</outline>
	<anchor name="bottom" x="468" y="0"/>
	<anchor name="top" x="416" y="1000"/>
</glyph>
<glyph name="idotless" format="2">
	<unicode hex="0131"/>
	<advance width="638"/>
	<outline>
		<contour>
			<point x="61.7857055664" y="0" type="line"/>
			<point x="61.7857055664" y="82" type="line"/>
			<point x="243.7844848633" y="107" type="line"/>
			<point x="246.8462524414" y="527" type="line"/>
			<point x="240.130065918" y="859.3515625" type="line"/>
			<point x="66.7857055664" y="881.3515625" type="line"/>
			<point x="66.7857055664" y="978.3515625" type="line"/>
			<point x="357.3670043945" y="1004.9692382812" type="line"/>
			<point x="391.4170532227" y="1002.9692382812" type="line"/>
			<point x="411.9729614258" y="951.4500732422" type="line"/>
			<point x="405.2567749023" y="527" type="line"/>
			<point x="413.3185424805" y="107" type="line"/>
			<point x="586.3173217773" y="82" type="line"/>
			<point x="586.3173217773" y="0" type="line"/>
		</contour>
	</outline>
	<anchor name="bottom" x="320" y="0"/>
	<anchor name="top" x="320" y="1000"/>
	<anchor name="ogonek" x="513" y="0"/>
	<anchor name="liga" x="639" y="0"/>
</glyph>
